<?xml version="1.0" encoding="iso-8859-1"?>
<!-- Generator: Adobe Illustrator 19.0.0, SVG Export Plug-In . SVG Version: 6.00 Build 0)  -->
<svg version="1.1" id="Capa_1" xmlns="http://www.w3.org/2000/svg" xmlns:xlink="http://www.w3.org/1999/xlink" x="0px" y="0px"
	 viewBox="0 0 417.398 417.398" style="enable-background:new 0 0 417.398 417.398;" xml:space="preserve">
<g>
	<g>
		<path d="M395.552,284.869l-41.993-34.404c-27.358-22.413-69.826-20.292-94.784,4.665l-1.667,1.667
			c-4.185,4.185-11.002,4.152-15.128,0.025l-81.135-81.135c-4.096-4.096-4.177-10.684-0.23-14.867
			c0.072-0.076,0.145-0.151,0.219-0.226l-0.223,0.223l0,0c0.074-0.074,0.148-0.149,0.222-0.223
			c24.82-25.058,27.195-67.722,5.453-95.21l-34.059-43.059C110.335-5.353,72.287-7.491,47.332,17.464l-6.256,6.256
			c-44.325,44.325-54.77,124.215-21.522,177.332c0,0,19.572,45.39,85.622,111.44s111.44,85.622,111.44,85.622
			c53.613,32.438,132.98,22.83,177.295-21.485l5.958-5.958C424.843,345.697,422.892,307.267,395.552,284.869z M369.698,340.501
			l-5.958,5.958c-30.424,30.424-88.22,37.426-125.038,15.15l-2.505-1.516l-2.688-1.159c-3.3-1.423-11.572-5.908-24.078-14.296
			c-22.211-14.898-47.153-35.382-74.086-62.315s-47.418-51.875-62.315-74.086c-8.388-12.506-12.874-20.778-14.296-24.078
			l-1.288-2.987l-1.726-2.757C33.335,142.653,40.552,84.585,71.246,53.891l6.256-6.256c6.937-6.937,15.231-6.465,21.263,1.161
			l34.059,43.059c8.398,10.617,7.311,29.101-2.381,38.794c-20.618,20.859-20.516,54.462,0.233,75.21l81.135,81.135
			c20.799,20.799,54.632,20.811,75.469-0.025l1.667-1.667c9.46-9.46,27.192-10.336,37.574-1.83l41.993,34.404
			C376.354,324.298,376.813,333.387,369.698,340.501z"/>
	</g>
</g>
<g>
</g>
<g>
</g>
<g>
</g>
<g>
</g>
<g>
</g>
<g>
</g>
<g>
</g>
<g>
</g>
<g>
</g>
<g>
</g>
<g>
</g>
<g>
</g>
<g>
</g>
<g>
</g>
<g>
</g>
</svg>
